<svg id="svg" version="1.1" xmlns="http://www.w3.org/2000/svg" xmlns:xlink="http://www.w3.org/1999/xlink" width="400" height="140.33041788143828" viewBox="0, 0, 400,140.33041788143828"><g id="svgg"><path id="path0" d="M171.333 12.291 C 171.332 12.360,171.332 39.979,171.331 73.667 L 171.331 134.917 171.895 134.967 C 172.240 134.998,172.559 134.917,172.717 134.759 C 172.860 134.616,173.094 134.500,173.238 134.500 C 173.382 134.500,173.500 134.425,173.500 134.333 C 173.500 134.242,173.688 134.167,173.917 134.167 C 174.146 134.167,174.333 134.100,174.333 134.018 C 174.333 133.936,174.521 133.822,174.750 133.765 C 174.979 133.707,175.167 133.587,175.167 133.497 C 175.167 133.407,175.317 133.333,175.500 133.333 C 175.683 133.333,175.833 133.258,175.833 133.167 C 175.833 133.075,175.989 133.000,176.179 133.000 C 176.548 133.000,177.000 132.639,177.000 132.345 C 177.000 132.247,177.188 132.167,177.417 132.167 C 177.646 132.167,177.833 132.092,177.833 132.000 C 177.833 131.908,178.021 131.833,178.250 131.833 C 178.479 131.833,178.667 131.758,178.667 131.667 C 178.667 131.575,178.817 131.500,179.000 131.500 C 179.185 131.500,179.333 131.389,179.333 131.250 C 179.333 131.094,179.491 131.000,179.750 131.000 C 179.979 131.000,180.167 130.925,180.167 130.833 C 180.167 130.742,180.354 130.667,180.583 130.667 C 180.813 130.667,181.000 130.592,181.000 130.500 C 181.000 130.408,181.150 130.333,181.333 130.333 C 181.519 130.333,181.667 130.222,181.667 130.083 C 181.667 129.928,181.824 129.833,182.083 129.833 C 182.313 129.833,182.500 129.758,182.500 129.667 C 182.500 129.575,182.601 129.500,182.724 129.500 C 183.059 129.500,184.000 128.999,184.000 128.821 C 184.000 128.736,184.188 128.667,184.417 128.667 C 184.646 128.667,184.833 128.592,184.833 128.500 C 184.833 128.408,184.934 128.333,185.058 128.333 C 185.392 128.333,186.333 127.832,186.333 127.654 C 186.333 127.570,186.521 127.500,186.750 127.500 C 186.979 127.500,187.167 127.425,187.167 127.333 C 187.167 127.242,187.298 127.164,187.458 127.161 C 187.819 127.155,188.333 126.779,188.333 126.523 C 188.333 126.419,188.521 126.333,188.750 126.333 C 188.979 126.333,189.167 126.258,189.167 126.167 C 189.167 126.075,189.317 126.000,189.500 126.000 C 189.683 126.000,189.833 125.925,189.833 125.833 C 189.833 125.742,190.021 125.667,190.250 125.667 C 190.509 125.667,190.667 125.572,190.667 125.417 C 190.667 125.261,190.824 125.167,191.083 125.167 C 191.313 125.167,191.500 125.092,191.500 125.000 C 191.500 124.908,191.650 124.833,191.833 124.833 C 192.017 124.833,192.167 124.758,192.167 124.667 C 192.167 124.575,192.354 124.500,192.583 124.500 C 192.843 124.500,193.000 124.406,193.000 124.250 C 193.000 124.094,193.157 124.000,193.417 124.000 C 193.646 124.000,193.833 123.925,193.833 123.833 C 193.833 123.742,193.983 123.667,194.167 123.667 C 194.350 123.667,194.500 123.592,194.500 123.500 C 194.500 123.408,194.652 123.333,194.839 123.333 C 195.025 123.333,195.220 123.221,195.273 123.083 C 195.326 122.946,195.507 122.833,195.675 122.833 C 195.843 122.833,196.027 122.758,196.083 122.667 C 196.140 122.575,196.332 122.500,196.510 122.500 C 196.688 122.500,196.833 122.425,196.833 122.333 C 196.833 122.242,196.986 122.167,197.172 122.167 C 197.358 122.167,197.554 122.054,197.606 121.917 C 197.659 121.779,197.840 121.667,198.008 121.667 C 198.176 121.667,198.360 121.592,198.417 121.500 C 198.473 121.408,198.665 121.333,198.843 121.333 C 199.021 121.333,199.167 121.258,199.167 121.167 C 199.167 121.075,199.279 121.000,199.417 121.000 C 199.554 121.000,199.667 120.888,199.667 120.750 C 199.667 120.611,199.815 120.500,200.000 120.500 C 200.183 120.500,200.333 120.425,200.333 120.333 C 200.333 120.242,200.521 120.167,200.750 120.167 C 200.979 120.167,201.167 120.092,201.167 120.000 C 201.167 119.908,201.319 119.833,201.505 119.833 C 201.691 119.833,201.887 119.721,201.940 119.583 C 201.992 119.446,202.178 119.333,202.351 119.333 C 202.525 119.333,202.667 119.258,202.667 119.167 C 202.667 119.075,202.854 119.000,203.083 119.000 C 203.313 119.000,203.500 118.925,203.500 118.833 C 203.500 118.742,203.652 118.667,203.839 118.667 C 204.025 118.667,204.220 118.554,204.273 118.417 C 204.326 118.279,204.511 118.167,204.684 118.167 C 204.858 118.167,205.000 118.092,205.000 118.000 C 205.000 117.908,205.188 117.833,205.417 117.833 C 205.646 117.833,205.833 117.758,205.833 117.667 C 205.833 117.575,205.986 117.500,206.172 117.500 C 206.358 117.500,206.554 117.388,206.606 117.250 C 206.659 117.112,206.844 117.000,207.018 117.000 C 207.191 117.000,207.333 116.925,207.333 116.833 C 207.333 116.742,207.521 116.667,207.750 116.667 C 207.979 116.667,208.167 116.592,208.167 116.500 C 208.167 116.408,208.309 116.333,208.482 116.333 C 208.656 116.333,208.841 116.221,208.894 116.083 C 208.946 115.946,209.142 115.833,209.328 115.833 C 209.514 115.833,209.667 115.758,209.667 115.667 C 209.667 115.575,209.822 115.500,210.012 115.500 C 210.381 115.500,210.833 115.139,210.833 114.845 C 210.833 114.747,211.021 114.667,211.250 114.667 C 211.479 114.667,211.667 114.592,211.667 114.500 C 211.667 114.408,211.854 114.333,212.083 114.333 C 212.313 114.333,212.500 114.258,212.500 114.167 C 212.500 114.075,212.650 114.000,212.833 114.000 C 213.019 114.000,213.167 113.889,213.167 113.750 C 213.167 113.594,213.324 113.500,213.583 113.500 C 213.813 113.500,214.000 113.425,214.000 113.333 C 214.000 113.242,214.188 113.167,214.417 113.167 C 214.646 113.167,214.833 113.092,214.833 113.000 C 214.833 112.908,214.983 112.833,215.167 112.833 C 215.352 112.833,215.500 112.722,215.500 112.583 C 215.500 112.428,215.657 112.333,215.917 112.333 C 216.146 112.333,216.333 112.258,216.333 112.167 C 216.333 112.075,216.479 112.000,216.657 112.000 C 216.835 112.000,217.027 111.925,217.083 111.833 C 217.140 111.742,217.332 111.667,217.510 111.667 C 217.688 111.667,217.833 111.554,217.833 111.417 C 217.833 111.261,217.991 111.167,218.250 111.167 C 218.479 111.167,218.667 111.092,218.667 111.000 C 218.667 110.908,218.812 110.833,218.990 110.833 C 219.168 110.833,219.360 110.758,219.417 110.667 C 219.473 110.575,219.665 110.500,219.843 110.500 C 220.021 110.500,220.167 110.388,220.167 110.250 C 220.167 110.094,220.324 110.000,220.583 110.000 C 220.813 110.000,221.000 109.925,221.000 109.833 C 221.000 109.742,221.150 109.667,221.333 109.667 C 221.517 109.667,221.667 109.592,221.667 109.500 C 221.667 109.408,221.779 109.333,221.917 109.333 C 222.054 109.333,222.167 109.221,222.167 109.083 C 222.167 108.928,222.324 108.833,222.583 108.833 C 222.813 108.833,223.000 108.758,223.000 108.667 C 223.000 108.575,223.150 108.500,223.333 108.500 C 223.517 108.500,223.667 108.425,223.667 108.333 C 223.667 108.242,223.854 108.167,224.083 108.167 C 224.343 108.167,224.500 108.072,224.500 107.917 C 224.500 107.761,224.657 107.667,224.917 107.667 C 225.146 107.667,225.333 107.592,225.333 107.500 C 225.333 107.408,225.483 107.333,225.667 107.333 C 225.850 107.333,226.000 107.258,226.000 107.167 C 226.000 107.075,226.188 107.000,226.417 107.000 C 226.676 107.000,226.833 106.906,226.833 106.750 C 226.833 106.594,226.991 106.500,227.250 106.500 C 227.479 106.500,227.667 106.425,227.667 106.333 C 227.667 106.242,227.817 106.167,228.000 106.167 C 228.183 106.167,228.333 106.092,228.333 106.000 C 228.333 105.908,228.486 105.833,228.672 105.833 C 228.858 105.833,229.054 105.721,229.106 105.583 C 229.159 105.446,229.340 105.333,229.508 105.333 C 229.676 105.333,229.860 105.258,229.917 105.167 C 229.973 105.075,230.165 105.000,230.343 105.000 C 230.521 105.000,230.667 104.925,230.667 104.833 C 230.667 104.742,230.812 104.667,230.990 104.667 C 231.168 104.667,231.360 104.592,231.417 104.500 C 231.485 104.389,256.252 104.333,305.177 104.333 L 378.833 104.333 378.833 58.251 L 378.833 12.168 275.083 12.167 C 218.021 12.166,171.333 12.223,171.333 12.291 M212.603 40.069 L 213.167 40.722 213.167 44.835 C 213.167 51.113,213.808 50.667,204.782 50.667 C 195.541 50.667,196.500 49.621,196.500 59.701 C 196.500 67.914,196.505 67.963,197.417 68.393 C 198.623 68.963,199.123 69.000,205.608 69.000 L 212.109 69.000 212.429 69.375 C 213.146 70.213,213.167 70.355,213.167 74.494 C 213.167 80.556,213.933 80.067,204.322 80.133 C 199.577 80.165,196.516 80.116,195.489 79.992 C 194.624 79.886,193.467 79.764,192.917 79.719 C 192.367 79.675,191.845 79.570,191.758 79.486 C 191.671 79.402,191.389 79.333,191.131 79.333 C 190.663 79.333,190.575 79.303,189.528 78.778 C 189.223 78.625,188.867 78.500,188.736 78.500 C 188.606 78.500,188.500 78.425,188.500 78.333 C 188.500 78.242,188.379 78.167,188.231 78.167 C 187.724 78.167,185.354 76.215,185.338 75.785 C 185.336 75.712,185.180 75.488,184.993 75.287 C 184.560 74.822,184.167 74.039,184.167 73.641 C 184.167 73.472,184.104 73.333,184.028 73.333 C 183.498 73.333,183.430 71.788,183.428 59.750 C 183.425 47.713,183.471 46.634,184.010 46.092 C 184.096 46.005,184.167 45.798,184.167 45.633 C 184.167 45.468,184.242 45.333,184.333 45.333 C 184.425 45.333,184.500 45.227,184.500 45.097 C 184.500 44.799,185.041 43.836,185.208 43.834 C 185.277 43.834,185.333 43.755,185.333 43.660 C 185.333 43.151,187.425 41.521,189.000 40.803 C 191.905 39.478,192.957 39.379,203.894 39.401 L 212.038 39.417 212.603 40.069 M231.459 39.792 C 231.665 39.998,231.833 40.279,231.833 40.417 C 231.833 40.554,231.908 40.667,232.000 40.667 C 232.108 40.667,232.167 42.918,232.167 47.086 L 232.167 53.506 236.542 53.461 L 240.917 53.417 241.000 47.083 C 241.113 38.522,240.345 39.417,247.580 39.417 L 253.140 39.417 253.553 39.805 C 253.780 40.018,254.024 40.431,254.096 40.721 C 254.317 41.624,254.370 78.017,254.151 78.500 C 253.425 80.096,253.478 80.083,247.750 80.083 C 242.745 80.083,242.287 80.043,241.727 79.546 C 241.121 79.008,241.084 78.635,241.000 72.167 L 240.917 65.750 236.542 65.706 L 232.167 65.661 232.167 72.083 C 232.167 80.806,232.769 80.083,225.500 80.083 C 220.483 80.083,220.133 80.049,219.489 79.491 L 219.083 79.139 219.083 59.749 L 219.083 40.360 219.479 39.939 C 219.997 39.387,220.171 39.373,226.084 39.397 C 231.034 39.416,231.088 39.420,231.459 39.792 M291.194 39.750 C 291.829 40.227,291.888 40.654,291.892 44.833 C 291.899 50.866,292.956 50.237,282.708 50.303 L 274.500 50.356 274.500 52.261 L 274.500 54.167 280.100 54.167 C 287.841 54.167,287.333 53.798,287.333 59.423 C 287.333 65.050,287.858 64.664,280.208 64.666 L 274.500 64.667 274.500 66.833 L 274.500 69.000 282.526 69.000 L 290.552 69.000 291.109 69.425 C 291.467 69.698,291.667 69.993,291.667 70.249 C 291.667 70.468,291.742 70.693,291.833 70.750 C 291.936 70.814,292.000 72.276,292.000 74.583 C 292.000 76.890,291.936 78.353,291.833 78.417 C 291.742 78.473,291.667 78.671,291.667 78.855 C 291.667 79.040,291.571 79.286,291.455 79.402 C 290.763 80.094,291.010 80.081,277.035 80.130 C 262.812 80.179,262.630 80.170,261.898 79.381 L 261.500 78.951 261.500 59.674 L 261.500 40.396 261.958 39.961 C 262.600 39.352,261.988 39.375,277.083 39.397 C 290.475 39.416,290.759 39.423,291.194 39.750 M326.292 39.665 C 326.498 39.802,326.667 40.008,326.667 40.123 C 326.667 40.239,326.742 40.333,326.833 40.333 C 326.940 40.333,327.000 41.972,327.000 44.917 C 327.000 47.861,326.940 49.500,326.833 49.500 C 326.742 49.500,326.667 49.616,326.667 49.758 C 326.667 50.548,325.680 50.659,318.635 50.663 C 314.409 50.665,311.982 50.727,311.917 50.833 C 311.860 50.925,311.686 51.000,311.530 51.000 C 311.258 51.000,311.007 51.292,310.546 52.144 C 310.180 52.821,310.244 66.770,310.616 67.516 C 310.986 68.258,311.476 68.654,312.032 68.661 C 312.279 68.664,312.527 68.742,312.583 68.833 C 312.649 68.940,315.081 69.000,319.330 69.000 L 325.974 69.000 326.487 69.513 L 327.000 70.026 327.000 74.513 C 327.000 77.393,326.940 79.000,326.833 79.000 C 326.742 79.000,326.667 79.111,326.667 79.246 C 326.667 80.013,326.029 80.080,318.211 80.134 C 311.110 80.184,309.938 80.134,306.750 79.644 C 306.200 79.559,305.468 79.447,305.124 79.394 C 304.780 79.341,304.456 79.231,304.406 79.149 C 304.355 79.067,304.205 79.000,304.071 79.000 C 302.661 79.000,299.343 76.301,298.435 74.416 C 298.171 73.867,297.889 73.286,297.810 73.127 C 297.731 72.968,297.667 72.589,297.667 72.286 C 297.667 71.982,297.573 71.640,297.458 71.525 C 297.296 71.362,297.250 68.764,297.250 59.667 C 297.250 50.569,297.296 47.971,297.458 47.808 C 297.573 47.694,297.667 47.374,297.667 47.098 C 297.667 45.702,300.176 42.163,301.674 41.446 C 301.807 41.382,302.142 41.186,302.417 41.010 C 302.692 40.835,303.085 40.686,303.292 40.679 C 303.498 40.672,303.667 40.607,303.667 40.535 C 303.667 40.411,304.364 40.181,305.917 39.793 C 307.877 39.303,325.577 39.192,326.292 39.665 M345.250 39.641 C 346.137 40.239,346.167 40.496,346.167 47.590 L 346.167 54.167 347.089 54.167 C 347.818 54.167,348.031 54.106,348.110 53.875 C 348.164 53.715,348.387 53.194,348.604 52.719 C 348.822 52.243,349.000 51.774,349.000 51.677 C 349.000 51.580,349.075 51.500,349.167 51.500 C 349.258 51.500,349.333 51.390,349.333 51.256 C 349.333 50.954,349.870 49.771,350.042 49.694 C 350.110 49.664,350.167 49.532,350.167 49.401 C 350.167 49.269,350.236 49.032,350.321 48.873 C 350.478 48.580,350.901 47.632,351.417 46.417 C 351.572 46.050,351.888 45.337,352.118 44.833 C 352.348 44.329,352.593 43.767,352.663 43.583 C 352.733 43.400,352.987 42.836,353.228 42.331 C 353.469 41.825,353.667 41.319,353.667 41.206 C 353.667 41.093,353.733 41.000,353.814 41.000 C 353.895 41.000,353.997 40.861,354.042 40.692 C 354.086 40.523,354.407 40.167,354.756 39.900 L 355.390 39.417 360.320 39.365 C 365.787 39.307,366.391 39.369,366.792 40.030 C 367.063 40.476,366.887 41.597,366.471 42.075 C 366.395 42.162,366.333 42.368,366.333 42.533 C 366.333 42.698,366.264 42.833,366.180 42.833 C 366.096 42.833,365.977 43.057,365.917 43.331 C 365.857 43.605,365.738 43.872,365.654 43.925 C 365.569 43.977,365.500 44.165,365.500 44.343 C 365.500 44.521,365.425 44.667,365.333 44.667 C 365.242 44.667,365.167 44.797,365.167 44.956 C 365.167 45.115,364.987 45.621,364.768 46.081 C 363.799 48.115,363.167 49.528,363.167 49.660 C 363.167 49.738,363.021 50.090,362.843 50.443 C 362.552 51.019,362.319 51.552,361.796 52.833 C 361.703 53.063,361.522 53.450,361.396 53.694 C 361.167 54.135,361.169 54.138,361.868 54.256 C 362.254 54.321,362.686 54.432,362.827 54.501 C 362.968 54.571,363.524 54.843,364.062 55.106 C 364.985 55.556,366.429 56.845,366.710 57.468 C 366.780 57.623,366.981 57.975,367.156 58.250 C 367.332 58.525,367.481 58.952,367.488 59.198 C 367.495 59.445,367.575 59.693,367.667 59.750 C 367.775 59.817,367.833 63.216,367.833 69.402 L 367.833 78.951 367.435 79.381 C 366.760 80.110,366.024 80.195,361.022 80.126 C 354.240 80.033,354.833 80.772,354.833 72.426 C 354.833 66.391,354.823 66.199,354.488 65.772 L 354.142 65.333 350.155 65.333 L 346.167 65.333 346.167 71.850 C 346.167 80.810,346.736 80.058,339.901 80.138 C 334.801 80.198,334.109 80.116,333.418 79.371 L 333.000 78.920 333.000 59.658 L 333.000 40.396 333.458 39.961 C 334.074 39.377,334.182 39.367,339.917 39.394 C 343.803 39.412,344.991 39.467,345.250 39.641 M174.717 99.875 C 174.987 100.502,175.349 101.842,175.460 102.627 C 175.502 102.925,175.604 103.211,175.685 103.261 C 175.767 103.312,175.833 103.644,175.833 104.000 C 175.833 104.356,175.900 104.688,175.982 104.739 C 176.063 104.789,176.164 105.075,176.207 105.373 C 176.313 106.121,176.675 107.522,176.853 107.873 C 176.934 108.032,177.000 108.421,177.000 108.738 C 177.000 109.055,177.067 109.355,177.148 109.405 C 177.230 109.456,177.331 109.741,177.373 110.040 C 177.479 110.787,177.842 112.189,178.020 112.539 C 178.101 112.699,178.167 113.056,178.167 113.333 C 178.167 113.611,178.233 113.968,178.314 114.127 C 178.492 114.478,178.854 115.879,178.960 116.627 C 179.002 116.925,179.104 117.211,179.185 117.261 C 179.267 117.312,179.333 117.644,179.333 118.000 C 179.333 118.356,179.408 118.693,179.500 118.750 C 179.592 118.807,179.667 119.025,179.667 119.235 C 179.667 120.095,180.006 120.667,180.516 120.667 C 180.782 120.667,181.000 120.592,181.000 120.500 C 181.000 120.408,181.110 120.333,181.244 120.333 C 181.469 120.333,182.339 120.000,183.039 119.646 C 183.199 119.566,183.443 119.500,183.583 119.500 C 183.723 119.500,183.968 119.429,184.127 119.341 C 184.286 119.254,184.717 119.060,185.083 118.911 C 185.450 118.761,185.880 118.570,186.039 118.486 C 186.199 118.402,186.428 118.333,186.550 118.333 C 186.671 118.333,187.160 118.146,187.635 117.917 C 188.110 117.688,188.607 117.500,188.739 117.500 C 188.872 117.500,189.027 117.425,189.083 117.333 C 189.140 117.242,189.407 117.167,189.677 117.167 C 189.946 117.167,190.167 117.092,190.167 117.000 C 190.167 116.908,190.249 116.833,190.350 116.833 C 190.451 116.833,190.769 116.730,191.058 116.603 C 191.347 116.476,191.846 116.281,192.167 116.169 C 192.487 116.058,192.900 115.908,193.083 115.836 C 193.267 115.765,193.754 115.577,194.167 115.420 C 194.579 115.262,195.047 115.065,195.206 114.983 C 195.365 114.901,195.610 114.833,195.750 114.833 C 195.890 114.833,196.135 114.767,196.294 114.685 C 196.453 114.604,196.883 114.405,197.250 114.244 C 197.617 114.083,198.047 113.887,198.206 113.809 C 198.365 113.731,198.610 113.667,198.750 113.667 C 198.890 113.667,199.135 113.603,199.294 113.525 C 199.453 113.446,199.883 113.251,200.250 113.089 C 200.617 112.928,201.047 112.730,201.206 112.648 C 201.365 112.567,201.595 112.500,201.717 112.500 C 201.838 112.500,202.326 112.313,202.801 112.083 C 203.276 111.854,203.773 111.667,203.906 111.667 C 204.039 111.667,204.193 111.592,204.250 111.500 C 204.307 111.408,204.500 111.333,204.679 111.333 C 204.858 111.333,205.135 111.264,205.294 111.180 C 205.453 111.096,206.108 110.824,206.750 110.577 C 208.475 109.913,208.531 109.890,209.192 109.600 C 209.527 109.453,209.916 109.333,210.057 109.333 C 210.198 109.333,210.360 109.258,210.417 109.167 C 210.473 109.075,210.688 109.000,210.893 109.000 C 211.099 109.000,211.338 108.937,211.425 108.860 C 211.512 108.783,211.846 108.622,212.167 108.502 C 212.487 108.382,213.012 108.174,213.333 108.041 C 213.654 107.908,214.067 107.742,214.250 107.673 C 214.433 107.603,214.867 107.423,215.214 107.273 C 215.561 107.123,215.992 107.000,216.172 107.000 C 216.353 107.000,216.500 106.925,216.500 106.833 C 216.500 106.742,216.636 106.667,216.802 106.667 C 216.968 106.667,217.493 106.479,217.968 106.250 C 218.443 106.021,218.940 105.833,219.073 105.833 C 219.205 105.833,219.360 105.758,219.417 105.667 C 219.473 105.575,219.666 105.500,219.845 105.500 C 220.025 105.500,220.301 105.431,220.461 105.347 C 220.620 105.262,221.275 104.991,221.917 104.744 C 223.585 104.101,223.687 104.061,224.333 103.786 C 224.654 103.650,225.217 103.443,225.583 103.327 C 225.950 103.211,226.646 102.940,227.130 102.725 C 227.613 102.509,228.083 102.333,228.173 102.333 C 228.330 102.333,228.494 102.265,229.250 101.884 C 229.433 101.792,229.719 101.764,229.886 101.822 C 230.390 101.999,229.888 102.316,225.917 104.330 C 223.900 105.352,222.179 106.259,222.092 106.344 C 222.005 106.430,221.805 106.500,221.647 106.500 C 221.490 106.500,221.336 106.561,221.306 106.635 C 221.235 106.806,219.504 107.667,219.231 107.667 C 219.119 107.667,219.003 107.727,218.972 107.802 C 218.902 107.972,217.171 108.833,216.898 108.833 C 216.786 108.833,216.669 108.894,216.639 108.968 C 216.578 109.115,216.276 109.277,212.106 111.384 C 210.560 112.165,209.214 112.886,209.114 112.986 C 209.015 113.085,208.798 113.167,208.633 113.167 C 208.468 113.167,208.333 113.242,208.333 113.333 C 208.333 113.425,208.198 113.500,208.033 113.500 C 207.868 113.500,207.662 113.566,207.575 113.646 C 207.282 113.916,205.824 114.667,205.591 114.667 C 205.465 114.667,205.336 114.723,205.306 114.792 C 205.230 114.962,203.468 115.839,203.208 115.836 C 203.094 115.835,202.999 115.890,202.998 115.958 C 202.998 116.027,202.660 116.231,202.248 116.412 C 201.837 116.593,201.500 116.800,201.500 116.871 C 201.500 116.942,201.386 117.000,201.247 117.000 C 201.107 117.000,200.714 117.172,200.372 117.383 C 200.030 117.593,198.475 118.400,196.917 119.174 C 195.358 119.949,194.058 120.640,194.028 120.708 C 193.997 120.777,193.833 120.833,193.663 120.833 C 193.492 120.833,193.310 120.902,193.258 120.987 C 193.206 121.071,191.683 121.884,189.873 122.794 C 188.064 123.704,186.300 124.610,185.953 124.807 C 185.607 125.005,185.219 125.167,185.092 125.167 C 184.965 125.167,184.836 125.230,184.806 125.307 C 184.775 125.384,183.588 126.029,182.167 126.741 C 180.746 127.453,179.208 128.246,178.750 128.503 C 178.292 128.760,177.785 128.977,177.625 128.985 C 177.465 128.993,177.333 129.056,177.332 129.125 C 177.331 129.293,176.367 129.833,176.070 129.833 C 175.940 129.833,175.833 129.908,175.833 130.000 C 175.833 130.092,175.698 130.167,175.533 130.167 C 175.368 130.167,175.152 130.248,175.053 130.347 C 174.953 130.447,174.694 130.503,174.478 130.472 L 174.083 130.417 174.038 115.250 C 173.987 98.475,173.999 98.205,174.717 99.875 " stroke="none" fill="#3ca4fc" fill-rule="evenodd"></path><path id="path1" d="M193.333 39.850 C 187.239 41.048,184.551 43.429,183.674 48.406 C 183.372 50.120,183.443 70.058,183.756 71.448 C 184.617 75.268,187.045 77.966,190.417 78.848 C 190.692 78.920,191.367 79.107,191.917 79.264 C 192.793 79.514,194.082 79.558,202.353 79.619 L 211.789 79.689 212.270 79.275 L 212.750 78.862 212.750 74.501 L 212.750 70.139 212.206 69.653 L 211.661 69.167 205.018 69.167 C 195.294 69.167,196.167 70.106,196.167 59.640 C 196.167 51.689,196.161 51.736,197.261 50.897 L 197.890 50.417 204.820 50.329 C 208.632 50.281,211.871 50.184,212.018 50.112 C 212.680 49.792,212.750 49.283,212.750 44.792 L 212.750 40.468 212.250 40.068 L 211.750 39.668 202.917 39.685 C 198.058 39.695,193.746 39.769,193.333 39.850 M219.774 40.075 L 219.333 40.484 219.333 59.666 L 219.333 78.848 219.742 79.258 L 220.152 79.667 225.455 79.667 C 230.900 79.667,230.913 79.665,231.667 79.042 C 231.713 79.004,231.787 75.923,231.833 72.195 L 231.917 65.417 236.583 65.417 L 241.250 65.417 241.333 72.194 L 241.417 78.972 241.817 79.319 C 242.205 79.656,242.385 79.667,247.616 79.667 L 253.015 79.667 253.424 79.258 L 253.833 78.848 253.833 59.725 L 253.833 40.602 253.385 40.134 L 252.938 39.667 247.581 39.667 L 242.225 39.667 241.821 40.097 L 241.417 40.526 241.333 47.055 L 241.250 53.583 236.583 53.583 L 231.917 53.583 231.833 47.027 L 231.750 40.471 231.282 40.069 L 230.815 39.667 225.515 39.667 L 220.215 39.667 219.774 40.075 M262.302 39.973 C 261.673 40.612,261.667 40.809,261.667 59.683 C 261.667 79.483,261.649 79.044,262.475 79.487 C 263.212 79.881,290.550 79.723,291.061 79.321 L 291.500 78.976 291.500 74.514 C 291.500 69.510,291.547 69.706,290.250 69.351 C 289.812 69.231,286.934 69.168,281.875 69.168 L 274.167 69.167 274.167 66.851 C 274.167 64.893,274.207 64.520,274.430 64.434 C 274.575 64.379,277.197 64.333,280.256 64.333 C 287.652 64.333,287.167 64.677,287.167 59.434 C 287.167 54.163,287.635 54.500,280.310 54.500 C 277.221 54.500,274.575 54.454,274.430 54.399 C 274.037 54.248,274.037 50.252,274.430 50.101 C 274.575 50.046,278.278 50.000,282.658 50.000 C 290.462 50.000,290.631 49.993,291.061 49.655 L 291.500 49.309 291.500 44.833 L 291.500 40.356 291.016 40.011 C 290.323 39.518,262.786 39.481,262.302 39.973 M307.815 39.741 C 307.774 39.782,307.231 39.897,306.608 39.996 C 302.726 40.616,299.904 42.504,298.614 45.343 C 297.509 47.774,297.500 47.891,297.500 59.667 C 297.500 71.902,297.599 72.804,299.180 75.103 C 300.356 76.812,303.228 78.833,304.480 78.833 C 304.664 78.833,304.854 78.898,304.903 78.978 C 304.952 79.057,305.313 79.170,305.705 79.228 C 306.096 79.285,306.829 79.402,307.333 79.487 C 308.631 79.707,325.601 79.714,326.009 79.495 C 326.747 79.100,326.833 78.578,326.833 74.500 C 326.833 68.685,327.546 69.167,318.936 69.167 C 309.255 69.167,310.168 70.135,310.167 59.868 C 310.166 49.392,309.204 50.452,318.833 50.328 C 326.334 50.231,326.151 50.253,326.556 49.404 C 326.896 48.690,326.973 41.252,326.647 40.614 C 326.146 39.634,326.564 39.674,316.819 39.670 C 311.908 39.668,307.855 39.700,307.815 39.741 M333.884 39.961 C 333.164 40.529,333.167 40.443,333.167 59.683 C 333.167 79.483,333.149 79.044,333.975 79.487 C 334.438 79.734,344.562 79.734,345.025 79.487 C 345.782 79.081,345.833 78.589,345.833 71.705 C 345.833 66.894,345.885 65.182,346.033 65.033 C 346.301 64.766,353.172 64.753,353.905 65.019 C 355.089 65.448,355.074 65.358,355.167 72.536 C 355.243 78.441,355.275 79.014,355.547 79.286 C 355.818 79.556,356.316 79.588,361.047 79.632 C 366.911 79.687,366.889 79.690,367.338 78.954 C 367.726 78.317,367.853 61.911,367.483 60.133 C 366.896 57.308,365.033 55.408,362.110 54.653 C 361.483 54.491,360.939 54.328,360.902 54.291 C 360.842 54.231,361.662 52.276,362.702 50.000 C 362.890 49.587,363.141 49.025,363.259 48.750 C 363.378 48.475,363.668 47.830,363.904 47.317 C 364.140 46.803,364.333 46.341,364.333 46.290 C 364.333 46.238,364.603 45.608,364.934 44.890 C 366.790 40.850,366.909 40.438,366.362 39.942 C 365.867 39.494,355.901 39.529,355.157 39.982 C 354.699 40.260,353.833 41.309,353.833 41.585 C 353.833 41.641,353.638 42.114,353.400 42.635 C 353.162 43.157,352.868 43.808,352.747 44.083 C 352.352 44.981,351.145 47.738,350.923 48.250 C 350.397 49.464,350.094 50.149,349.672 51.083 C 349.423 51.633,349.002 52.571,348.735 53.167 C 348.152 54.470,348.122 54.494,347.139 54.497 C 345.717 54.502,345.833 55.115,345.833 47.590 L 345.833 40.883 345.452 40.316 L 345.070 39.750 339.660 39.711 C 334.740 39.675,334.217 39.698,333.884 39.961 M174.620 100.769 C 174.426 100.963,174.473 130.167,174.667 130.167 C 174.760 130.167,175.191 129.988,175.626 129.769 C 177.754 128.700,183.597 125.702,185.000 124.959 C 185.871 124.498,188.233 123.282,190.250 122.257 C 192.267 121.232,195.792 119.432,198.083 118.257 C 200.375 117.083,203.713 115.372,205.500 114.456 C 207.287 113.540,210.137 112.079,211.833 111.209 C 215.333 109.412,221.960 106.019,225.394 104.264 C 226.695 103.599,227.579 103.058,227.418 103.026 C 227.260 102.995,227.049 103.051,226.949 103.151 C 226.849 103.251,226.631 103.333,226.464 103.333 C 226.298 103.333,226.032 103.401,225.873 103.483 C 225.714 103.566,225.058 103.836,224.417 104.083 C 223.775 104.330,223.100 104.591,222.917 104.663 C 222.733 104.735,222.246 104.924,221.833 105.083 C 221.421 105.243,220.933 105.432,220.750 105.504 C 220.567 105.575,219.967 105.802,219.417 106.008 C 218.867 106.214,218.192 106.477,217.917 106.592 C 217.642 106.708,215.992 107.341,214.250 108.000 C 212.508 108.658,210.915 109.265,210.708 109.349 C 210.502 109.432,210.165 109.568,209.958 109.650 C 209.451 109.854,207.405 110.645,206.583 110.955 C 206.217 111.093,205.729 111.283,205.500 111.376 C 204.700 111.700,204.395 111.817,201.250 113.003 C 199.508 113.660,197.858 114.291,197.583 114.407 C 197.308 114.522,196.821 114.710,196.500 114.825 C 195.857 115.055,195.535 115.181,194.667 115.542 C 194.346 115.675,193.633 115.952,193.083 116.157 C 191.790 116.640,190.854 116.998,190.333 117.209 C 189.521 117.539,189.232 117.648,187.583 118.252 C 185.843 118.890,185.412 119.058,184.583 119.421 C 184.308 119.541,183.333 119.913,182.417 120.248 C 181.500 120.583,180.609 120.933,180.437 121.026 C 179.977 121.276,179.758 120.946,179.427 119.500 C 179.270 118.813,179.073 118.025,178.990 117.750 C 178.908 117.475,178.644 116.425,178.404 115.417 C 178.164 114.408,177.903 113.358,177.825 113.083 C 177.747 112.808,177.565 112.096,177.421 111.500 C 177.143 110.351,176.970 109.663,176.686 108.583 C 176.340 107.270,175.659 104.527,175.341 103.167 C 174.838 101.021,174.730 100.659,174.620 100.769 " stroke="none" fill="#fafbfc" fill-rule="evenodd"></path><path id="path2" d="M17.000 39.167 C 17.000 39.258,16.813 39.333,16.583 39.333 C 16.338 39.333,16.167 39.429,16.167 39.566 C 16.167 39.693,16.054 39.841,15.917 39.894 C 15.779 39.946,15.667 40.142,15.667 40.328 C 15.667 40.514,15.592 40.667,15.500 40.667 C 15.391 40.667,15.333 43.806,15.333 49.750 C 15.333 55.694,15.391 58.833,15.500 58.833 C 15.592 58.833,15.667 59.203,15.667 59.655 C 15.667 60.163,15.762 60.572,15.917 60.726 C 16.054 60.864,16.167 61.207,16.167 61.488 C 16.167 61.770,16.242 62.000,16.333 62.000 C 16.425 62.000,16.500 62.221,16.500 62.490 C 16.500 62.760,16.575 63.027,16.667 63.083 C 16.758 63.140,16.833 63.327,16.833 63.498 C 16.833 63.669,16.946 63.922,17.083 64.060 C 17.221 64.197,17.333 64.465,17.333 64.655 C 17.333 64.845,17.408 65.000,17.500 65.000 C 17.592 65.000,17.667 65.262,17.667 65.583 C 17.667 65.904,17.742 66.167,17.833 66.167 C 17.925 66.167,18.000 66.319,18.000 66.505 C 18.000 66.691,18.112 66.887,18.250 66.940 C 18.404 66.999,18.500 67.252,18.500 67.601 C 18.500 67.912,18.575 68.167,18.667 68.167 C 18.758 68.167,18.833 68.312,18.833 68.490 C 18.833 68.668,18.908 68.860,19.000 68.917 C 19.092 68.973,19.167 69.160,19.167 69.331 C 19.167 69.503,19.279 69.755,19.417 69.893 C 19.554 70.030,19.667 70.298,19.667 70.488 C 19.667 70.678,19.742 70.833,19.833 70.833 C 19.925 70.833,20.000 71.096,20.000 71.417 C 20.000 71.737,20.075 72.000,20.167 72.000 C 20.258 72.000,20.333 72.152,20.333 72.339 C 20.333 72.525,20.446 72.720,20.583 72.773 C 20.738 72.832,20.833 73.086,20.833 73.434 C 20.833 73.746,20.908 74.000,21.000 74.000 C 21.092 74.000,21.167 74.150,21.167 74.333 C 21.167 74.517,21.242 74.667,21.333 74.667 C 21.425 74.667,21.500 74.849,21.500 75.071 C 21.500 75.294,21.613 75.589,21.750 75.726 C 21.887 75.864,22.000 76.132,22.000 76.321 C 22.000 76.511,22.075 76.667,22.167 76.667 C 22.258 76.667,22.333 76.929,22.333 77.250 C 22.333 77.571,22.408 77.833,22.500 77.833 C 22.592 77.833,22.667 77.986,22.667 78.172 C 22.667 78.358,22.779 78.554,22.917 78.606 C 23.054 78.659,23.167 78.806,23.167 78.933 C 23.167 79.280,23.701 79.833,24.037 79.833 C 24.200 79.833,24.333 79.908,24.333 80.000 C 24.333 80.109,27.417 80.167,33.250 80.167 C 39.083 80.167,42.167 80.109,42.167 80.000 C 42.167 79.908,42.300 79.833,42.463 79.833 C 42.806 79.833,43.333 79.277,43.333 78.915 C 43.333 78.778,43.408 78.667,43.500 78.667 C 43.592 78.667,43.667 78.479,43.667 78.250 C 43.667 77.991,43.761 77.833,43.917 77.833 C 44.091 77.833,44.167 77.657,44.167 77.250 C 44.167 76.929,44.242 76.667,44.333 76.667 C 44.425 76.667,44.500 76.479,44.500 76.250 C 44.500 76.021,44.575 75.833,44.667 75.833 C 44.758 75.833,44.833 75.571,44.833 75.250 C 44.833 74.843,44.909 74.667,45.083 74.667 C 45.222 74.667,45.333 74.519,45.333 74.333 C 45.333 74.150,45.408 74.000,45.500 74.000 C 45.592 74.000,45.667 73.737,45.667 73.417 C 45.667 73.096,45.742 72.833,45.833 72.833 C 45.925 72.833,46.000 72.646,46.000 72.417 C 46.000 72.157,46.094 72.000,46.250 72.000 C 46.425 72.000,46.500 71.824,46.500 71.417 C 46.500 71.096,46.575 70.833,46.667 70.833 C 46.758 70.833,46.833 70.646,46.833 70.417 C 46.833 70.188,46.908 70.000,47.000 70.000 C 47.092 70.000,47.167 69.783,47.167 69.518 C 47.167 69.243,47.274 68.994,47.417 68.940 C 47.554 68.887,47.667 68.691,47.667 68.505 C 47.667 68.319,47.742 68.167,47.833 68.167 C 47.925 68.167,48.000 67.904,48.000 67.583 C 48.000 67.262,48.075 67.000,48.167 67.000 C 48.258 67.000,48.333 66.813,48.333 66.583 C 48.333 66.324,48.428 66.167,48.583 66.167 C 48.758 66.167,48.833 65.991,48.833 65.583 C 48.833 65.262,48.908 65.000,49.000 65.000 C 49.092 65.000,49.167 64.854,49.167 64.677 C 49.167 64.499,49.242 64.307,49.333 64.250 C 49.425 64.193,49.500 63.934,49.500 63.675 C 49.500 63.409,49.609 63.160,49.750 63.106 C 49.887 63.054,50.000 62.858,50.000 62.672 C 50.000 62.486,50.075 62.333,50.167 62.333 C 50.258 62.333,50.333 62.071,50.333 61.750 C 50.333 61.429,50.408 61.167,50.500 61.167 C 50.595 61.167,50.667 60.673,50.667 60.018 C 50.667 59.150,50.728 58.845,50.917 58.773 C 51.135 58.689,51.167 57.512,51.167 49.572 L 51.167 40.467 50.600 39.900 C 50.288 39.588,49.913 39.333,49.767 39.333 C 49.620 39.333,49.500 39.258,49.500 39.167 C 49.500 38.955,39.450 38.938,39.039 39.149 C 38.880 39.231,38.544 39.379,38.292 39.478 C 38.040 39.578,37.833 39.774,37.833 39.913 C 37.833 40.053,37.758 40.167,37.667 40.167 C 37.558 40.167,37.500 43.250,37.500 49.083 C 37.500 54.917,37.442 58.000,37.333 58.000 C 37.242 58.000,37.167 58.254,37.167 58.566 C 37.167 58.914,37.071 59.168,36.917 59.227 C 36.771 59.283,36.667 59.533,36.667 59.828 C 36.667 60.106,36.592 60.333,36.500 60.333 C 36.408 60.333,36.333 60.596,36.333 60.917 C 36.333 61.237,36.258 61.500,36.167 61.500 C 36.075 61.500,36.000 61.754,36.000 62.066 C 36.000 62.414,35.904 62.668,35.750 62.727 C 35.604 62.783,35.500 63.033,35.500 63.328 C 35.500 63.606,35.425 63.833,35.333 63.833 C 35.242 63.833,35.167 64.096,35.167 64.417 C 35.167 64.737,35.092 65.000,35.000 65.000 C 34.908 65.000,34.833 65.254,34.833 65.566 C 34.833 65.914,34.738 66.168,34.583 66.227 C 34.437 66.283,34.333 66.533,34.333 66.828 C 34.333 67.106,34.258 67.333,34.167 67.333 C 34.075 67.333,34.000 67.446,34.000 67.583 C 34.000 67.758,33.824 67.833,33.417 67.833 C 33.009 67.833,32.833 67.758,32.833 67.583 C 32.833 67.446,32.758 67.333,32.667 67.333 C 32.575 67.333,32.500 67.183,32.500 67.000 C 32.500 66.815,32.389 66.667,32.250 66.667 C 32.075 66.667,32.000 66.491,32.000 66.083 C 32.000 65.762,31.925 65.500,31.833 65.500 C 31.742 65.500,31.667 65.237,31.667 64.917 C 31.667 64.596,31.592 64.333,31.500 64.333 C 31.408 64.333,31.333 64.071,31.333 63.750 C 31.333 63.343,31.258 63.167,31.083 63.167 C 30.909 63.167,30.833 62.991,30.833 62.583 C 30.833 62.262,30.758 62.000,30.667 62.000 C 30.575 62.000,30.500 61.737,30.500 61.417 C 30.500 61.096,30.425 60.833,30.333 60.833 C 30.242 60.833,30.167 60.571,30.167 60.250 C 30.167 59.843,30.091 59.667,29.917 59.667 C 29.742 59.667,29.667 59.491,29.667 59.083 C 29.667 58.762,29.592 58.500,29.500 58.500 C 29.391 58.500,29.333 55.357,29.333 49.405 C 29.333 39.975,29.324 39.833,28.679 39.833 C 28.580 39.833,28.500 39.721,28.500 39.583 C 28.500 39.446,28.354 39.333,28.177 39.333 C 27.999 39.333,27.807 39.258,27.750 39.167 C 27.685 39.061,25.693 39.000,22.323 39.000 C 18.886 39.000,17.000 39.059,17.000 39.167 M57.750 39.167 C 57.693 39.258,57.501 39.333,57.323 39.333 C 57.146 39.333,57.000 39.446,57.000 39.583 C 57.000 39.721,56.887 39.833,56.750 39.833 C 56.594 39.833,56.500 39.991,56.500 40.250 C 56.500 40.479,56.425 40.667,56.333 40.667 C 56.118 40.667,56.106 48.871,56.321 49.092 C 56.405 49.179,56.499 49.475,56.529 49.750 C 56.569 50.121,56.680 50.264,56.958 50.303 C 57.165 50.333,57.333 50.426,57.333 50.512 C 57.333 50.602,58.722 50.667,60.667 50.667 L 64.000 50.667 64.000 59.833 L 64.000 69.000 60.500 69.000 C 58.278 69.000,57.000 69.061,57.000 69.167 C 57.000 69.258,56.887 69.333,56.750 69.333 C 56.594 69.333,56.500 69.491,56.500 69.750 C 56.500 69.979,56.425 70.167,56.333 70.167 C 56.227 70.167,56.167 71.694,56.167 74.417 C 56.167 77.139,56.227 78.667,56.333 78.667 C 56.425 78.667,56.500 78.811,56.500 78.986 C 56.500 79.527,56.688 79.833,57.018 79.833 C 57.191 79.833,57.333 79.908,57.333 80.000 C 57.333 80.110,61.861 80.167,70.583 80.167 C 79.306 80.167,83.833 80.110,83.833 80.000 C 83.833 79.908,83.983 79.833,84.167 79.833 C 84.411 79.833,84.500 79.722,84.500 79.417 C 84.500 79.157,84.594 79.000,84.750 79.000 C 84.966 79.000,85.000 78.391,85.000 74.518 L 85.000 70.035 84.516 69.518 L 84.033 69.000 80.766 69.000 L 77.500 69.000 77.500 59.833 L 77.500 50.667 80.762 50.667 C 84.233 50.667,84.500 50.608,84.500 49.845 C 84.500 49.649,84.608 49.500,84.750 49.500 C 84.966 49.500,85.000 48.887,85.000 44.983 L 85.000 40.467 84.433 39.900 C 84.122 39.588,83.747 39.333,83.600 39.333 C 83.453 39.333,83.333 39.258,83.333 39.167 C 83.333 39.057,78.976 39.000,70.593 39.000 C 62.280 39.000,57.817 39.058,57.750 39.167 M92.762 39.148 C 92.711 39.229,92.407 39.345,92.085 39.405 C 91.653 39.486,91.500 39.600,91.500 39.841 C 91.500 40.020,91.425 40.167,91.333 40.167 C 91.223 40.167,91.167 46.806,91.167 59.750 C 91.167 72.694,91.223 79.333,91.333 79.333 C 91.425 79.333,91.500 79.446,91.500 79.583 C 91.500 79.721,91.612 79.833,91.750 79.833 C 91.888 79.833,92.000 79.908,92.000 80.000 C 92.000 80.110,96.444 80.167,105.000 80.167 C 113.556 80.167,118.000 80.110,118.000 80.000 C 118.000 79.908,118.415 79.833,118.922 79.833 C 119.588 79.833,119.870 79.764,119.940 79.583 C 119.999 79.429,120.252 79.333,120.601 79.333 C 120.912 79.333,121.167 79.258,121.167 79.167 C 121.167 79.075,121.392 79.000,121.667 79.000 C 121.942 79.000,122.167 78.925,122.167 78.833 C 122.167 78.742,122.279 78.667,122.417 78.667 C 122.554 78.667,122.667 78.554,122.667 78.417 C 122.667 78.279,122.798 78.167,122.958 78.166 C 123.288 78.166,124.167 77.468,124.167 77.207 C 124.167 77.113,124.279 76.992,124.417 76.940 C 124.554 76.887,124.667 76.729,124.667 76.589 C 124.667 76.448,124.742 76.333,124.833 76.333 C 124.925 76.333,125.000 76.221,125.000 76.083 C 125.000 75.946,125.075 75.833,125.167 75.833 C 125.258 75.833,125.333 75.571,125.333 75.250 C 125.333 74.843,125.409 74.667,125.583 74.667 C 125.758 74.667,125.833 74.491,125.833 74.083 C 125.833 73.762,125.908 73.500,126.000 73.500 C 126.108 73.500,126.167 71.528,126.167 67.917 C 126.167 64.306,126.108 62.333,126.000 62.333 C 125.908 62.333,125.833 62.076,125.833 61.762 C 125.833 61.448,125.721 61.078,125.583 60.940 C 125.446 60.803,125.333 60.535,125.333 60.345 C 125.333 60.155,125.258 60.000,125.167 60.000 C 125.075 60.000,124.998 59.869,124.996 59.708 C 124.991 59.340,123.306 57.667,122.940 57.667 C 122.790 57.667,122.667 57.592,122.667 57.500 C 122.667 57.408,122.479 57.333,122.250 57.333 C 121.991 57.333,121.833 57.239,121.833 57.083 C 121.833 56.909,121.657 56.833,121.250 56.833 C 120.430 56.833,120.567 56.031,121.537 55.147 C 121.700 54.999,121.833 54.651,121.833 54.373 C 121.833 54.079,121.937 53.829,122.083 53.773 C 122.270 53.701,122.333 53.404,122.333 52.598 C 122.333 52.005,122.408 51.473,122.500 51.417 C 122.596 51.357,122.667 50.474,122.667 49.333 C 122.667 48.193,122.596 47.309,122.500 47.250 C 122.408 47.193,122.333 46.662,122.333 46.068 C 122.333 45.263,122.270 44.965,122.083 44.894 C 121.929 44.834,121.833 44.581,121.833 44.232 C 121.833 43.921,121.758 43.667,121.667 43.667 C 121.575 43.667,121.500 43.526,121.500 43.355 C 121.500 43.183,121.237 42.818,120.917 42.544 C 120.596 42.270,120.333 41.993,120.333 41.928 C 120.333 41.783,119.896 41.333,119.754 41.333 C 119.698 41.333,119.464 41.146,119.235 40.917 C 119.006 40.688,118.709 40.500,118.576 40.500 C 118.442 40.500,118.333 40.425,118.333 40.333 C 118.333 40.242,118.071 40.167,117.750 40.167 C 117.429 40.167,117.167 40.092,117.167 40.000 C 117.167 39.908,116.936 39.833,116.655 39.833 C 116.373 39.833,116.030 39.721,115.893 39.583 C 115.719 39.410,115.293 39.333,114.498 39.333 C 113.868 39.333,113.307 39.258,113.250 39.167 C 113.119 38.955,92.893 38.936,92.762 39.148 M133.167 39.167 C 133.167 39.258,133.044 39.333,132.893 39.333 C 132.743 39.333,132.405 39.558,132.143 39.832 L 131.667 40.330 131.667 59.665 C 131.667 72.444,131.723 79.000,131.833 79.000 C 131.925 79.000,132.000 79.188,132.000 79.417 C 132.000 79.750,132.083 79.833,132.417 79.833 C 132.646 79.833,132.833 79.908,132.833 80.000 C 132.833 80.110,137.698 80.167,147.095 80.167 C 161.972 80.167,161.833 80.173,161.833 79.512 C 161.833 79.414,161.946 79.333,162.083 79.333 C 162.300 79.333,162.333 78.685,162.333 74.500 C 162.333 70.686,162.288 69.667,162.120 69.667 C 162.003 69.667,161.799 69.517,161.667 69.333 C 161.432 69.008,161.235 69.000,153.130 69.000 L 144.833 69.000 144.833 66.833 L 144.833 64.667 150.915 64.667 C 157.612 64.667,157.667 64.658,157.667 63.639 C 157.667 63.390,157.742 63.140,157.833 63.083 C 157.936 63.020,158.000 61.582,158.000 59.323 C 158.000 56.997,157.939 55.667,157.833 55.667 C 157.742 55.667,157.667 55.458,157.667 55.204 C 157.667 54.173,157.622 54.167,150.915 54.167 L 144.833 54.167 144.833 52.252 L 144.833 50.336 153.292 50.293 L 161.750 50.250 161.803 49.875 C 161.833 49.669,161.964 49.500,162.095 49.500 C 162.296 49.500,162.333 48.747,162.333 44.667 C 162.333 41.341,162.278 39.833,162.155 39.833 C 162.057 39.833,161.864 39.721,161.726 39.583 C 161.589 39.446,161.294 39.333,161.071 39.333 C 160.849 39.333,160.667 39.258,160.667 39.167 C 160.667 39.057,155.972 39.000,146.917 39.000 C 137.861 39.000,133.167 39.057,133.167 39.167 M109.929 49.738 C 110.060 49.869,110.167 50.096,110.167 50.243 C 110.167 50.390,110.279 50.554,110.417 50.606 C 110.753 50.736,110.789 53.833,110.453 53.833 C 110.336 53.833,110.132 53.983,110.000 54.167 C 109.777 54.477,109.569 54.500,107.047 54.500 L 104.333 54.500 104.333 52.000 L 104.333 49.500 107.012 49.500 C 109.111 49.500,109.742 49.551,109.929 49.738 M111.333 63.992 C 111.333 64.080,111.596 64.201,111.917 64.261 C 112.237 64.321,112.500 64.437,112.500 64.519 C 112.500 64.600,112.612 64.667,112.750 64.667 C 112.960 64.667,113.000 65.037,113.000 67.000 C 113.000 68.963,112.960 69.333,112.750 69.333 C 112.612 69.333,112.500 69.408,112.500 69.500 C 112.500 69.592,112.273 69.667,111.995 69.667 C 111.699 69.667,111.450 69.771,111.394 69.917 C 111.313 70.128,110.757 70.167,107.816 70.167 L 104.333 70.167 104.333 67.000 L 104.333 63.833 107.833 63.833 C 109.945 63.833,111.333 63.896,111.333 63.992 " stroke="none" fill="#344444" fill-rule="evenodd"></path><path id="path3" d="" stroke="none" fill="#68b8100" fill-rule="evenodd"></path><path id="path4" d="" stroke="none" fill="#68b8100" fill-rule="evenodd"></path></g></svg>