<svg width="667" height="714" viewBox="0 0 667 714" fill="none" xmlns="http://www.w3.org/2000/svg">
<g clip-path="url(#clip0)">
<path d="M112.227 541.943C112.227 541.943 114.572 491.5 162.652 497.363Z" fill="#E6E6E6"/>
<path d="M111.663 712.87C111.602 712.342 105.928 659.779 128.905 631.962C137.386 621.696 148.749 615.946 162.679 614.875L162.832 616.856C149.462 617.885 138.564 623.392 130.441 633.224C108 660.386 113.578 712.126 113.636 712.645L111.663 712.87Z" fill="#E6E6E6"/>
<path d="M111.72 490.367H109.72V711.367H111.72V490.367Z" fill="#E6E6E6"/>
<path d="M112.227 491.5C121.294 491.5 128.644 484.149 128.644 475.082C128.644 466.015 121.294 458.665 112.227 458.665C103.16 458.665 95.8099 466.015 95.8099 475.082C95.8099 484.149 103.16 491.5 112.227 491.5Z" fill="#3CA1FF"/>
<path d="M162.755 632.179C171.765 632.179 179.069 624.875 179.069 615.865C179.069 606.856 171.765 599.552 162.755 599.552C153.746 599.552 146.442 606.856 146.442 615.865C146.442 624.875 153.746 632.179 162.755 632.179Z" fill="#E6E6E6"/>
<path d="M666.856 180.387V181.467C666.832 184.179 666.754 186.878 666.623 189.566C664.284 235.558 644.443 278.913 611.167 310.747C577.891 342.582 533.699 360.484 487.649 360.785C441.599 361.086 397.177 343.764 363.487 312.368C329.798 280.971 309.391 237.879 306.451 191.922C306.205 188.105 306.082 184.26 306.082 180.387C306.018 143.026 317.613 106.575 339.252 76.1183C340.982 73.6641 342.782 71.2548 344.651 68.8906C345.939 67.2462 347.265 65.6387 348.602 64.0435C379.053 27.969 422.43 5.26662 469.427 0.806868C516.425 -3.65289 563.298 10.4853 599.99 40.1882C602.162 41.943 604.298 43.7591 606.384 45.6121C608.053 47.0969 609.693 48.6145 611.304 50.1647C643.045 80.5253 662.581 121.449 666.23 165.22C666.648 170.226 666.856 175.282 666.856 180.387Z" fill="#3CA1FF"/>
<path d="M344.651 68.8906C344.739 68.9277 344.822 68.9773 344.896 69.0379C345.866 69.8355 344.651 71.3694 344.798 72.6333C344.97 74.2531 347.13 74.609 348.762 74.7685C350.394 74.9403 352.455 76.2533 351.682 77.7013C347.584 79.1125 343.436 77.7259 339.252 76.1183C317.613 106.575 306.018 143.026 306.082 180.387C306.082 184.265 306.205 188.11 306.451 191.922C306.794 192.172 307.169 192.375 307.567 192.523C308.794 192.989 310.218 192.904 311.347 193.566C312.243 194.094 312.844 195.026 313.74 195.517C316.304 196.916 319.863 194.229 322.256 195.898C322.874 196.461 323.46 197.059 324.011 197.689C326.219 199.604 329.852 198.315 332.404 199.751C334.049 200.671 334.895 202.512 335.779 204.181C337.975 208.353 341.534 212.452 346.234 212.783C347.716 212.715 349.201 212.764 350.676 212.93C352.124 213.261 353.548 214.525 353.314 215.986C352.909 218.501 354.149 221.25 353.818 223.766C353.216 228.367 346.7 230.38 346.148 234.982C346.146 235.994 346.089 237.006 345.976 238.013C345.682 239.215 344.774 240.197 344.455 241.399C343.841 243.67 345.473 245.94 347.252 247.461C349.044 248.995 351.179 250.321 352.161 252.456C353.192 254.726 352.689 257.364 353.02 259.831C353.756 265.218 358.407 269.206 363.193 271.783C364.726 272.424 366.088 273.416 367.169 274.679C368.396 276.458 368.273 278.802 368.69 280.925C369.696 286.116 374.065 290.398 374.188 295.687C374.274 299.455 372.188 302.866 370.936 306.412C369.648 310.13 369.265 314.101 369.819 317.996C376.816 323.931 384.253 329.325 392.067 334.133C392.492 333.505 392.803 332.807 392.987 332.071C393.136 331.258 393.033 330.419 392.694 329.665C392.354 328.911 391.793 328.278 391.085 327.85C392.404 327.352 393.604 326.583 394.607 325.592C395.1 325.085 395.425 324.439 395.54 323.741C395.654 323.044 395.551 322.328 395.245 321.69C397.405 321.96 399.97 322.095 401.393 320.438C402.534 319.113 402.461 317.125 402.007 315.444C401.553 313.75 400.792 312.118 400.779 310.364C405.783 310.607 410.799 310.439 415.775 309.861C415.055 307.433 413.417 305.382 411.21 304.142C413.468 303.762 415.517 301.062 416.229 298.89C416.844 296.674 416.878 294.337 416.327 292.104C416.156 291.53 416.131 290.923 416.253 290.337C416.616 289.559 417.255 288.942 418.045 288.607C421.776 286.459 425.506 284.316 429.236 282.177C429.902 281.841 430.507 281.397 431.028 280.864C432.194 279.477 432.022 277.403 431.421 275.697C430.819 273.992 429.862 272.384 429.629 270.593C428.942 265.23 434.685 261.377 436.624 256.321C437.283 254.303 437.639 252.198 437.679 250.075C437.839 247.793 437.851 245.154 436.108 243.694C434.427 242.283 431.813 242.602 430.059 241.289C428.451 240.086 427.899 237.767 426.144 236.798C424.549 235.914 422.561 236.479 420.782 236.061C417.665 235.337 415.701 231.742 412.511 231.411C410.719 231.214 408.682 232.098 407.21 231.055C405.909 230.122 405.86 228.269 405.614 226.698C405.179 224.252 404.004 221.997 402.249 220.238C400.494 218.479 398.243 217.299 395.797 216.857C393.944 216.562 391.932 216.673 390.349 215.654C388.754 214.624 388.03 212.697 386.766 211.261C384.753 208.967 381.563 208.144 378.581 207.445C374.531 206.5 370.486 205.551 366.445 204.598C364.297 204.083 361.524 203.813 360.358 205.702C360.013 206.421 359.773 207.186 359.646 207.973C359.208 209.389 358.334 210.631 357.148 211.521C355.963 212.411 354.527 212.904 353.044 212.93C352.03 211.197 350.386 209.923 348.455 209.372C347.193 209.16 345.947 208.865 344.725 208.488C344.086 208.175 343.518 207.735 343.055 207.195C342.593 206.656 342.245 206.027 342.034 205.348C341.822 204.669 341.752 203.954 341.826 203.247C341.901 202.54 342.119 201.856 342.467 201.236C343.162 199.99 343.43 198.551 343.228 197.139C343.027 195.727 342.367 194.42 341.35 193.419C339.288 191.566 336.306 191.112 333.533 191.296C332.809 189.713 334.024 187.934 335.325 186.78C336.638 185.639 338.221 184.51 338.503 182.792C338.957 180.092 335.509 178.043 332.895 178.841C330.281 179.651 328.612 182.191 327.508 184.694C326.972 186.171 326.242 187.57 325.336 188.854C324.872 189.489 324.241 189.984 323.513 190.282C322.786 190.581 321.989 190.673 321.213 190.547C319.053 189.995 318.231 187.431 317.752 185.271C316.985 182.384 316.598 179.41 316.599 176.423C316.618 173.407 317.816 170.518 319.937 168.373C323.508 165.085 329.005 165.404 333.828 165.931C333.311 165.242 333.064 164.389 333.131 163.53C333.199 162.672 333.578 161.868 334.196 161.268C334.841 160.695 335.617 160.288 336.455 160.083C337.293 159.878 338.169 159.88 339.006 160.09C340.46 160.391 341.77 161.174 342.724 162.311C344.099 163.98 344.491 166.25 345.522 168.14C346.565 170.042 348.897 171.662 350.799 170.644C352.455 169.76 352.713 167.478 352.308 165.649C351.891 163.833 351.02 162.054 351.167 160.188C351.449 156.642 355.143 154.495 358.395 153.034C361.647 151.574 365.365 149.598 365.88 146.064C365.904 145.377 366.036 144.698 366.273 144.052C366.633 143.475 367.136 143.002 367.733 142.678C377.219 136.407 386.876 130.05 397.724 126.627C398.288 126.443 398.35 126.639 398.926 126.504C399.736 126.038 399.196 124.749 398.423 124.234C397.65 123.718 396.619 123.314 396.423 122.405C396.288 121.743 396.681 121.08 396.779 120.405C396.805 119.998 396.73 119.59 396.561 119.218C396.393 118.846 396.136 118.521 395.812 118.271C395.489 118.022 395.109 117.855 394.706 117.787C394.304 117.718 393.89 117.749 393.503 117.877C392.631 116.724 394.349 115.386 395.748 114.994C399.937 113.846 404.235 113.147 408.572 112.908C409.072 112.825 409.586 112.911 410.032 113.153C410.351 113.461 410.54 113.879 410.56 114.321C410.581 114.764 410.431 115.198 410.142 115.534C409.552 116.189 408.898 116.785 408.191 117.313C407.487 117.997 406.984 118.861 406.738 119.811C406.491 120.761 406.51 121.76 406.792 122.7C409.063 123.853 411.517 125.044 414.032 124.639C416.536 124.234 418.757 121.411 417.579 119.166C416.487 117.067 413.186 116.589 412.621 114.294C411.959 111.607 415.763 109.214 414.904 106.588C414.535 105.434 413.382 104.747 412.498 103.925C411.459 102.901 410.751 101.588 410.469 100.156C410.187 98.7249 410.342 97.2414 410.915 95.8996C409.479 96.1506 408.003 96.0543 406.611 95.6189C405.219 95.1834 403.952 94.4213 402.915 93.3963C401 91.4697 399.479 88.4141 396.754 88.5123C394.263 88.5859 392.116 91.4942 389.784 90.6107C389.208 90.3898 388.606 89.948 388.054 90.2057C387.872 90.3229 387.719 90.4798 387.606 90.6647C387.493 90.8497 387.424 91.0578 387.404 91.2733C386.815 94.108 387.833 97.3353 386.287 99.7896C384.606 102.452 380.716 102.821 378.679 105.226C377.575 106.526 377.145 108.281 376.127 109.656C375.108 111.03 372.961 111.914 371.733 110.711C372.334 109.479 372.499 108.079 372.2 106.742C371.901 105.404 371.157 104.207 370.089 103.348C368.959 102.606 367.738 102.012 366.457 101.581C365.025 100.977 363.664 100.22 362.395 99.3233C361.763 98.9382 361.249 98.3862 360.91 97.728C360.642 96.9004 360.677 96.0045 361.008 95.2002C361.63 93.4279 362.722 91.8585 364.169 90.6607C365.615 89.4628 367.361 88.682 369.218 88.4019C370.838 88.181 372.727 88.2547 373.807 87.0153C374.372 86.3649 374.666 85.3709 375.501 85.1133C376.026 85.0035 376.573 85.0681 377.059 85.2973C379.084 86.0091 381.096 86.7208 383.121 87.4325C383.796 87.7422 384.542 87.8651 385.281 87.7884C385.647 87.7412 385.981 87.5563 386.216 87.2714C386.451 86.9865 386.568 86.6229 386.545 86.2545C386.348 85.2483 384.802 84.7697 384.95 83.7512C385.021 83.4184 385.197 83.1173 385.453 82.8922C387.641 80.5642 390.317 78.7488 393.289 77.5756C396.261 76.4025 399.456 75.9007 402.645 76.1062C403.405 77.3701 402.203 78.8549 401.184 79.9225C400.178 81.0024 399.368 82.9167 400.595 83.7389C401.09 83.9985 401.644 84.1253 402.203 84.107C403.695 84.3072 405.145 84.7464 406.498 85.4078C408.596 86.3158 410.658 87.3221 412.67 88.4019C412.374 87.0863 412.425 85.7162 412.817 84.4261C413.039 83.7928 413.489 83.2647 414.079 82.9449C414.668 82.625 415.356 82.5362 416.008 82.6958C417.211 83.1621 417.824 84.7574 419.113 84.9046C420.818 85.101 421.493 82.5731 420.782 81.0024C420.07 79.4317 418.646 78.1309 418.536 76.4007C418.45 75.2472 418.892 73.8115 417.971 73.112C417.644 72.8952 417.27 72.7605 416.879 72.7193C409.173 71.3081 401.463 69.8928 393.748 68.4735C392.374 68.2158 390.398 68.4121 390.337 69.7988C390.3 70.5841 390.999 71.3572 390.692 72.0689C390.361 72.8298 389.281 72.7684 388.496 73.0384C387.906 73.306 387.419 73.7586 387.109 74.3276C386.799 74.8966 386.683 75.5511 386.778 76.1921C386.988 77.4681 387.483 78.6803 388.226 79.7384C386.717 79.1126 384.446 79.0022 382.937 78.3641C382.717 76.6164 382.272 74.9045 381.612 73.2715C381.574 73.0116 381.48 72.7631 381.336 72.5436C381.192 72.324 381.001 72.1387 380.778 72.0007C380.554 71.8627 380.303 71.7753 380.042 71.7447C379.782 71.714 379.517 71.741 379.268 71.8235C377.28 72.1303 375.292 72.4248 373.304 72.7316C372.805 72.7553 372.327 72.9405 371.942 73.2592C371.169 74.0814 371.93 75.3944 371.905 76.5234C371.833 77.1547 371.567 77.7479 371.142 78.2207C370.718 78.6934 370.157 79.0223 369.537 79.1617C368.288 79.4153 366.999 79.3986 365.757 79.1126C362.972 78.6831 360.198 78.2536 357.413 77.8241C359.872 77.0406 362.058 75.5771 363.72 73.6028C364.825 72.3021 365.414 69.8724 363.818 69.2589C363.347 69.1295 362.856 69.092 362.37 69.1484C358.591 69.1729 355.609 66.0192 352.075 64.6817C350.964 64.2671 349.788 64.0511 348.602 64.0436L344.651 68.8906Z" fill="#3F3D56"/>
<path d="M666.623 189.566C666.19 190.147 665.622 190.613 664.967 190.923C664.312 191.233 663.592 191.378 662.868 191.345C659.027 191.014 657.407 185.479 653.603 184.854C653.267 184.767 652.911 184.802 652.597 184.952C652.033 185.259 651.934 186.019 651.898 186.658C651.738 189.824 651.603 193.112 652.843 196.033C654.646 200.303 659.322 203.886 658.34 208.414C653.063 205.972 650.315 200.045 649.075 194.364C647.824 188.682 647.627 182.718 645.394 177.344C643.688 179.516 640.13 177.724 638.583 175.442C637.111 173.282 636.203 170.779 634.779 168.582C633.356 166.398 631.172 164.434 628.57 164.312C625.834 164.189 623.453 166.066 621.367 167.846C619.552 169.186 618.028 170.881 616.888 172.828C615.428 175.773 615.808 179.233 615.734 182.51C615.661 186.044 614.912 189.787 612.495 192.388C610.077 194.977 605.623 195.886 602.96 193.542C601.673 192.2 600.755 190.546 600.297 188.744C597.402 180.307 594.993 171.711 593.082 162.999C592.64 164.987 590.885 167.551 589.216 166.386C588.843 166.068 588.542 165.675 588.333 165.232C585.216 159.968 579.461 156.802 573.632 154.9C567.815 153.01 561.692 152.126 555.937 150.04C552.709 148.868 549.626 147.333 546.746 145.463C546.014 146.541 545.587 147.796 545.509 149.096C545.431 150.396 545.706 151.693 546.304 152.85C546.951 153.983 547.953 154.87 549.156 155.373C550.359 155.877 551.694 155.969 552.955 155.636C554.231 155.219 555.311 154.335 556.575 153.893C557.839 153.464 559.544 153.673 560.097 154.9C560.637 156.065 559.827 157.477 560.232 158.704C560.833 160.557 563.643 160.704 564.625 162.397C564.913 163.068 564.98 163.813 564.814 164.524C564.648 165.235 564.26 165.875 563.704 166.349C562.575 167.27 561.329 168.037 559.998 168.631C555.875 170.926 552.943 174.84 549.335 177.884C545.727 180.939 540.635 183.16 536.34 181.209C537.358 176.018 531.186 172.214 530.044 167.048C529.664 165.343 529.86 163.539 529.333 161.882C528.56 159.477 526.424 157.833 524.682 156.016C522.565 153.787 520.915 151.156 519.83 148.28C518.745 145.403 518.246 142.338 518.362 139.266C518.46 137.131 518.853 134.959 518.362 132.873C517.884 130.799 516.153 128.787 514.018 128.872C509.147 129.093 502.999 129.461 500.446 125.302C499.526 123.817 499.133 121.645 500.459 120.504C501.391 119.706 502.766 119.78 503.98 119.902C507.649 120.258 511.306 120.626 514.975 120.982C517.54 121.228 520.313 121.436 522.522 120.099C524.731 118.761 525.688 115.19 523.639 113.607C522.154 112.454 519.479 112.515 519.037 110.687C518.681 109.153 520.375 107.422 519.454 106.134C518.804 105.226 517.331 105.471 516.436 106.158C515.654 106.97 514.804 107.713 513.896 108.38C512.141 109.288 510.055 108.416 508.165 107.827C506.275 107.238 503.747 107.189 502.839 108.944C501.808 110.895 503.735 113.472 502.729 115.436C501.379 118.025 496.838 116.552 494.949 118.786C492.789 121.338 496.421 125.167 495.697 128.431C494.765 128.893 493.729 129.106 492.69 129.047C491.651 128.989 490.645 128.663 489.77 128.099C488.912 127.515 488.228 126.709 487.791 125.767C487.354 124.825 487.182 123.782 487.291 122.749C487.463 121.277 488.236 119.767 487.721 118.381C487.165 117.31 486.248 116.471 485.132 116.012C481.573 114.037 478.014 112.069 474.456 110.11C473.462 111.95 474.713 114.221 476.284 115.607C477.843 116.982 479.806 118.025 480.837 119.841C481.489 121.1 481.637 122.56 481.249 123.924C480.862 125.288 479.968 126.452 478.751 127.179C478.597 127.285 478.421 127.356 478.237 127.388C478.053 127.42 477.864 127.411 477.683 127.363C477.513 127.263 477.364 127.13 477.246 126.972C477.128 126.814 477.043 126.634 476.996 126.443C475.118 121.62 472.284 116.871 467.768 114.356C463.24 111.828 456.748 112.355 453.779 116.589C453.079 117.595 452.601 118.749 451.987 119.816C448.735 125.473 441.741 128.148 435.212 127.977C434.574 128.018 433.937 127.868 433.384 127.547C432.329 126.823 432.378 125.277 432.537 124.001C432.77 122.197 432.991 120.405 433.224 118.601C433.23 117.5 433.656 116.442 434.415 115.644C435.63 114.687 437.372 115.288 438.918 115.264C440.085 115.212 441.208 114.801 442.132 114.087C443.057 113.373 443.739 112.391 444.084 111.276C444.395 110.15 444.393 108.96 444.077 107.836C443.761 106.711 443.144 105.694 442.293 104.895C441.593 104.232 440.648 103.397 441.017 102.502C441.166 102.255 441.368 102.044 441.607 101.883C441.847 101.722 442.118 101.615 442.403 101.569C445.164 100.771 448.097 100.563 450.809 99.6057C453.533 98.6608 456.172 96.7219 456.822 93.9118C457.018 93.0528 457.104 92.0098 457.877 91.5803C458.268 91.4237 458.684 91.3404 459.104 91.3349C460.58 91.1234 461.923 90.3679 462.87 89.2167C463.817 88.0655 464.299 86.6019 464.221 85.1134C465.522 84.2053 467.351 84.8802 468.615 85.8496C469.866 86.8191 470.983 88.0953 472.517 88.5125C475.376 89.2978 478.137 86.7577 481.107 86.7454C482.358 86.7454 483.647 87.1872 484.813 86.7577C486.003 86.3282 486.715 85.1502 487.623 84.2789C488.543 83.3954 490.138 82.8677 490.985 83.8126C490.74 82.0333 490.506 80.2662 490.261 78.4992C491.707 78.8633 493.214 78.9136 494.68 78.647C496.147 78.3803 497.54 77.8027 498.765 76.953C495.673 75.9099 492.593 74.8669 489.5 73.8238C489.175 73.7438 488.876 73.5834 488.629 73.3575C487.954 72.6335 488.629 71.5046 489.169 70.6824C490.482 68.7067 490.703 65.4549 488.543 64.4732C487.071 63.7983 485.389 64.6082 483.978 65.3935C481.72 66.6452 479.462 67.9091 477.204 69.1608C476.996 70.4493 478.567 71.1855 479.536 72.0445C480.127 72.5685 480.545 73.2591 480.736 74.0254C480.926 74.7917 480.881 75.5978 480.604 76.3376C480.328 77.0773 479.834 77.7161 479.188 78.1698C478.542 78.6236 477.773 78.871 476.984 78.8796C477.428 79.4601 477.737 80.1329 477.888 80.8485C478.039 81.5641 478.028 82.3044 477.855 83.015C476.346 83.1254 474.824 83.2359 473.302 83.3463C473.049 83.3967 472.789 83.3966 472.537 83.3461C472.284 83.2955 472.044 83.1955 471.83 83.0518C471.339 82.6223 471.412 81.8615 471.29 81.2234C471.088 80.4607 470.662 79.776 470.067 79.2577C469.472 78.7393 468.735 78.411 467.952 78.3151C466.389 78.1393 464.806 78.2854 463.301 78.7446C462.647 78.9751 461.931 78.9576 461.289 78.6955C460.924 78.4545 460.649 78.1012 460.503 77.6893C460.236 76.8478 460.191 75.9517 460.371 75.0875C460.552 74.2233 460.952 73.4204 461.534 72.7563C462.713 71.4477 464.011 70.2521 465.412 69.1853C468.587 66.4055 470.921 62.7923 472.149 58.7548C474.652 57.6995 477.241 56.276 479.757 55.2207C481.779 54.2835 483.899 53.5715 486.077 53.0978C488.126 52.7847 490.203 52.686 492.274 52.8033C495.096 52.8523 497.931 52.9014 500.753 52.9628C503.272 52.8569 505.79 53.2189 508.177 54.0304C510.496 54.9876 512.546 57.0614 512.705 59.5647C512.753 59.85 512.728 60.1429 512.631 60.4156C512.535 60.6884 512.37 60.9319 512.153 61.1231C511.827 61.3033 511.457 61.3883 511.085 61.3686C508.742 61.4422 507.748 62.0312 505.404 62.1171C506.889 63.7001 508.557 65.369 510.717 65.6512C514.521 66.1421 517.258 62.203 519.013 58.7794C519.075 59.6508 519.476 60.4632 520.129 61.0433C520.783 61.6233 521.637 61.925 522.51 61.884C523.45 61.7223 524.347 61.3717 525.148 60.8532C532.696 56.7283 541.151 54.5439 549.752 54.4967C549.668 53.8455 549.828 53.1862 550.202 52.6466C550.576 52.107 551.137 51.7255 551.777 51.5762C553.531 51.2326 555.102 52.7419 555.949 54.3126C556.783 55.8833 557.311 57.6995 558.661 58.8775C559.998 60.0555 562.588 59.9942 563.115 58.3008C563.631 56.6687 561.925 55.2698 560.514 54.3004C559.09 53.3432 557.606 51.5639 558.563 50.1404C565.778 48.5328 573.055 46.9376 580.455 46.6185C581.712 46.6566 582.964 46.4395 584.136 45.9804C584.716 45.7348 585.199 45.3046 585.509 44.7565C585.82 44.2085 585.941 43.5733 585.854 42.9494C584.239 43.3263 582.549 43.2148 580.998 42.6293C579.447 42.0437 578.104 41.0105 577.141 39.6607C584.737 39.0349 592.689 38.4827 599.99 40.1884L606.384 45.6123C605.169 46.8762 603.549 48.0665 604.432 49.3305C604.724 49.6207 605.078 49.8411 605.466 49.975C605.855 50.1089 606.27 50.1529 606.678 50.1035C608.224 50.1281 609.77 50.1649 611.304 50.1649C643.045 80.5255 662.581 121.449 666.23 165.22C663.653 165.122 661.285 168.386 661.616 171.233C662.009 174.534 664.39 177.184 666.095 180.031C666.378 180.494 666.632 180.973 666.856 181.467L666.623 189.566Z" fill="#3F3D56"/>
<path d="M428.126 357.94C445.246 357.94 459.125 344.061 459.125 326.94C459.125 309.82 445.246 295.941 428.126 295.941C411.005 295.941 397.126 309.82 397.126 326.94C397.126 344.061 411.005 357.94 428.126 357.94Z" fill="#2F2E41"/>
<path d="M413.328 342.601C413.328 342.601 403.231 364.959 400.346 365.68C397.461 366.401 424.146 379.383 424.146 379.383C424.146 379.383 429.195 351.977 431.358 350.535C433.522 349.092 413.328 342.601 413.328 342.601Z" fill="#FFB9B9"/>
<path d="M353.467 525.791L334.715 578.44L354.909 586.374L389.528 517.858L353.467 525.791Z" fill="#FFB9B9"/>
<path d="M419.098 527.234C419.098 527.234 456.601 579.883 458.765 580.604C460.929 581.325 476.074 568.343 476.074 568.343C476.074 568.343 457.322 522.906 451.553 520.743C445.783 518.579 419.098 527.234 419.098 527.234Z" fill="#FFB9B9"/>
<path d="M331.83 569.064L302.26 646.235C302.26 646.235 304.424 650.562 302.26 651.284C300.096 652.005 295.048 663.544 295.048 664.266C295.048 664.987 289.999 665.708 289.999 667.872C289.999 670.035 285.672 687.345 285.672 687.345C285.672 687.345 293.605 704.654 298.654 699.605C303.703 694.557 305.866 684.46 305.866 684.46L313.078 665.708C313.078 665.708 312.357 655.611 317.406 654.168C322.454 652.726 325.339 634.695 325.339 634.695C325.339 634.695 333.272 626.762 334.715 624.598C336.157 622.435 361.4 584.21 359.236 583.489C357.073 582.768 331.83 569.064 331.83 569.064Z" fill="#2F2E41"/>
<path d="M454.438 579.161L476.074 564.737C476.074 564.737 513.578 633.253 513.578 634.695C513.578 636.138 512.135 640.465 513.578 641.908C515.02 643.35 527.281 666.429 535.214 668.593C543.148 670.756 544.59 679.411 538.099 680.854C531.608 682.296 522.953 685.902 520.79 680.854C519.525 677.883 518.08 674.993 516.462 672.199C516.462 672.199 509.25 674.363 508.529 672.92C507.697 670.795 506.975 668.629 506.365 666.429C506.365 666.429 500.596 656.332 500.596 652.726C500.596 649.12 496.99 648.399 496.99 648.399C496.99 648.399 489.056 629.647 484.008 626.762C478.959 623.877 474.632 609.453 474.632 609.453L454.438 579.161Z" fill="#2F2E41"/>
<path d="M428.474 359.189C440.025 359.189 449.389 349.825 449.389 338.274C449.389 326.723 440.025 317.359 428.474 317.359C416.922 317.359 407.558 326.723 407.558 338.274C407.558 349.825 416.922 359.189 428.474 359.189Z" fill="#FFB9B9"/>
<path d="M366.449 465.209C366.449 465.209 335.493 547.443 339.821 547.443C344.148 547.443 463.864 550.048 467.47 544.278C471.076 538.508 436.407 481.076 434.965 480.354C433.522 479.633 366.449 465.209 366.449 465.209Z" fill="#2F2E41"/>
<path d="M335.436 293.558L313.8 260.382C313.8 260.382 319.15 225.58 311.938 232.071C304.726 238.562 302.443 264.775 302.443 264.775L327.503 302.934L335.436 293.558Z" fill="#FFB9B9"/>
<path d="M531.608 354.141L551.081 352.698C551.081 352.698 574.16 328.177 575.603 336.11C577.045 344.044 556.851 361.353 556.851 361.353L530.166 364.238L531.608 354.141Z" fill="#FFB9B9"/>
<path d="M389.528 361.353V354.141C389.528 354.141 370.776 341.88 371.497 339.716C372.218 337.553 370.055 336.11 370.055 336.11C370.055 336.11 367.891 333.225 367.891 332.504C367.891 331.783 365.006 331.062 365.006 331.062L346.976 310.146C346.976 310.146 336.879 289.952 334.715 290.673C332.551 291.395 321.012 295.722 322.454 298.607C323.897 301.492 364.285 363.517 364.285 363.517C364.285 363.517 366.449 377.22 370.055 377.22C373.661 377.22 389.528 361.353 389.528 361.353Z" fill="#3F3D56"/>
<path d="M437.849 370.008C437.849 370.008 453.716 369.286 454.438 370.008C455.159 370.729 465.256 370.008 465.256 370.008C465.256 370.008 492.662 363.517 494.826 361.353C496.989 359.189 533.051 349.813 534.493 354.141C535.935 358.468 539.541 367.123 535.935 368.565C532.329 370.008 434.965 394.529 434.965 394.529L437.849 370.008Z" fill="#3F3D56"/>
<path d="M417.282 307.141C424.366 307.141 430.109 301.398 430.109 294.313C430.109 287.229 424.366 281.486 417.282 281.486C410.197 281.486 404.454 287.229 404.454 294.313C404.454 301.398 410.197 307.141 417.282 307.141Z" fill="#2F2E41"/>
<path d="M400.179 287.365C400.179 284.194 401.353 281.136 403.475 278.78C405.597 276.424 408.516 274.938 411.67 274.607C411.226 274.561 410.78 274.538 410.334 274.538C406.932 274.538 403.669 275.889 401.263 278.295C398.858 280.7 397.506 283.963 397.506 287.365C397.506 290.767 398.858 294.03 401.263 296.436C403.669 298.841 406.932 300.193 410.334 300.193C410.78 300.192 411.226 300.169 411.67 300.123C408.516 299.793 405.597 298.306 403.475 295.95C401.353 293.594 400.179 290.536 400.179 287.365V287.365Z" fill="#2F2E41"/>
<path d="M431.732 333.195C443.539 333.195 453.111 327.452 453.111 320.367C453.111 313.283 443.539 307.54 431.732 307.54C419.925 307.54 410.353 313.283 410.353 320.367C410.353 327.452 419.925 333.195 431.732 333.195Z" fill="#2F2E41"/>
<path d="M407.198 353.78C407.198 353.78 400.707 358.829 399.264 359.55C397.822 360.271 389.167 353.059 387.725 353.059C386.282 353.059 367.531 374.696 367.531 374.696C367.531 374.696 371.015 378.71 367.531 399.217C366.224 406.908 363.631 439.789 363.631 444.117C363.631 448.444 349.5 459.078 362.482 468.454C375.464 477.83 437.489 487.927 438.21 482.157C438.931 476.388 430.998 461.242 434.604 454.03C438.21 446.818 438.21 420.132 438.21 420.132L442.537 392.005L446.143 369.647C446.143 369.647 429.195 364.959 427.752 364.959C426.31 364.959 419.819 375.056 407.198 353.78Z" fill="#3F3D56"/>
</g>
<defs>
<clipPath id="clip0">
<rect width="666.856" height="713.509" fill="white"/>
</clipPath>
</defs>
</svg>
